<?xml version="1.0" encoding="iso-8859-1"?>
<!DOCTYPE svg PUBLIC "-//W3C//DTD SVG 1.1//EN" "http://www.w3.org/Graphics/SVG/1.1/DTD/svg11.dtd">
<svg version="1.1" id="Layer_1" xmlns="http://www.w3.org/2000/svg" xmlns:xlink="http://www.w3.org/1999/xlink" x="0px" y="0px" width="100px" height="100px" viewBox="0 0 100 100" style="enable-background:new 0 0 100 100;" xml:space="preserve">
	<style>
		path { fill: #CC6600; }
	</style>
	<path d="M96.622, 40.878l-11.436-3.817l-1.641-3.98l5.401-10.795c0.396-0.792, 0.242-1.748-0.384-2.375 l-8.725-8.726c-0.625-0.625-1.581-0.782-2.374-0.386l-10.796, 5.397l-3.979-1.648L58.872, 3.253C58.592, 2.413, 57.807, 2, 56.921, 2 H44.579c-0.886, 0-1.671, 0.413-1.951, 1.253l-3.816, 11.374l-3.979, 1.61L24.036, 10.82c-0.793-0.396-1.749-0.249-2.374, 0.376 l-8.726, 8.721c-0.626, 0.626-0.781, 1.58-0.386, 2.372l5.397, 10.794L16.3, 37.062L4.628, 40.879C3.788, 41.159, 3, 41.944, 3, 42.83v12.341 c0, 0.886, 0.788, 1.671, 1.628, 1.951l11.561, 3.816l1.704, 3.979l-5.37, 10.796c-0.396, 0.792-0.226, 1.748, 0.4, 2.374l8.733, 8.726 c0.625, 0.626, 1.584, 0.78, 2.377, 0.386l10.798-5.397l3.98, 1.648l3.817, 11.297c0.28, 0.84, 1.066, 1.253, 1.952, 1.253h12.342 c0.886, 0, 1.671-0.413, 1.951-1.253l3.816-11.374l3.979-1.61l10.796, 5.417c0.793, 0.397, 1.749, 0.25, 2.374-0.376l8.726-8.721 c0.626-0.626, 0.781-1.58, 0.386-2.372l-5.397-10.795l1.648-3.979l11.422-3.816c0.84-0.28, 1.378-1.065, 1.378-1.951V42.83 C98, 41.944, 97.462, 41.158, 96.622, 40.878z M94, 53.688l-10.963, 3.645c-0.565, 0.188-1.036, 0.613-1.264, 1.164l-2.374, 5.714 c-0.229, 0.551-0.21, 1.174, 0.057, 1.707l5.153, 10.31l-6.63, 6.629l-10.31-5.154c-0.533-0.267-1.158-0.287-1.707-0.061l-5.714, 2.367 c-0.551, 0.229-0.976, 0.588-1.164, 1.153L55.438, 92h-9.377l-3.645-10.838c-0.188-0.565-0.613-0.973-1.164-1.202l-5.714-2.343 c-0.55-0.228-1.173-0.194-1.707, 0.073l-10.31, 5.16l-6.629-6.626l5.154-10.308c0.267-0.533, 0.289-1.156, 0.061-1.706l-2.367-5.713 c-0.229-0.551-0.463-0.975-1.028-1.164L8, 53.688v-9.376l10.713-3.645c0.565-0.188, 0.911-0.613, 1.139-1.164l2.312-5.714 c0.229-0.551, 0.178-1.174-0.088-1.707l-5.168-10.309l6.622-6.63l10.306, 5.155c0.535, 0.268, 1.156, 0.289, 1.705, 0.061l5.713-2.367 c0.551-0.229, 0.975-0.588, 1.164-1.153L46.062, 6h9.377l3.645, 10.838c0.188, 0.565, 0.613, 0.973, 1.164, 1.202l5.714, 2.343 c0.549, 0.228, 1.173, 0.194, 1.707-0.073l10.31-5.161l6.629, 6.627l-5.154, 10.307c-0.267, 0.533-0.289, 1.155-0.061, 1.706l2.367, 5.714 c0.229, 0.551, 0.713, 0.975, 1.278, 1.164L94, 44.312V53.688z"/>
	<path d="M50.75, 34.603c-7.938, 0-14.397, 6.458-14.397, 14.397c0, 7.938, 6.459, 14.397, 14.397, 14.397 S65.147, 56.938, 65.147, 49C65.147, 41.061, 58.688, 34.603, 50.75, 34.603z M50.75, 59.284c-5.671, 0-10.284-4.613-10.284-10.284 c0-5.67, 4.613-10.284, 10.284-10.284S61.034, 43.33, 61.034, 49C61.034, 54.671, 56.421, 59.284, 50.75, 59.284z"/>
</svg>