<?xml version="1.0" encoding="iso-8859-1"?>
<!DOCTYPE svg PUBLIC "-//W3C//DTD SVG 1.1//EN" "http://www.w3.org/Graphics/SVG/1.1/DTD/svg11.dtd">
<svg version="1.1" id="Layer_1" xmlns="http://www.w3.org/2000/svg" xmlns:xlink="http://www.w3.org/1999/xlink" x="0px" y="0px" width="100px" height="100px" viewBox="0 0 100 100" style="enable-background:new 0 0 100 100;" xml:space="preserve">
	<style>
		path { fill: #CC6600; }
	</style>
	<path d="M97.884, 38.381c-0.243-0.75-0.892-1.295-1.671-1.409l-30.328-4.407L52.32, 5.084 c-0.349-0.707-1.068-1.154-1.856-1.154s-1.507, 0.447-1.856, 1.154L35.045, 32.566l-30.33, 4.407c-0.779, 0.113-1.427, 0.659-1.671, 1.409 s-0.041, 1.572, 0.524, 2.122l21.946, 21.393l-5.181, 30.206c-0.133, 0.776, 0.186, 1.562, 0.823, 2.024c0.361, 0.262, 0.788, 0.396, 1.217, 0.396 c0.33, 0, 0.66-0.079, 0.963-0.238l27.126-14.26l27.128, 14.26c0.696, 0.367, 1.542, 0.307, 2.18-0.157c0.638-0.463, 0.957-1.248, 0.823-2.024 l-5.181-30.206L97.36, 40.503C97.924, 39.953, 98.127, 39.131, 97.884, 38.381z M71.744, 59.691c-0.487, 0.476-0.71, 1.161-0.595, 1.832 l4.656, 27.145L51.427, 75.854c-0.301-0.159-0.632-0.238-0.963-0.238s-0.662, 0.079-0.963, 0.238L25.123, 88.668l4.656-27.145 c0.115-0.671-0.107-1.356-0.595-1.832L9.461, 40.466l27.256-3.96c0.674-0.098, 1.257-0.521, 1.559-1.132l12.188-24.697l12.189, 24.697 c0.302, 0.611, 0.885, 1.035, 1.559, 1.132l27.255, 3.96L71.744, 59.691z"/>
</svg>
