<?xml version="1.0" encoding="iso-8859-1"?>
<!DOCTYPE svg PUBLIC "-//W3C//DTD SVG 1.1//EN" "http://www.w3.org/Graphics/SVG/1.1/DTD/svg11.dtd">
<svg version="1.1" id="Layer_1" xmlns="http://www.w3.org/2000/svg" xmlns:xlink="http://www.w3.org/1999/xlink" x="0px" y="0px" viewBox="-44.05 -0.04 160 66" style="enable-background:new -44.05 -0.04 160 66;" xml:space="preserve">
	<style>
		polygon, path { fill: #ffffff; }
	</style>
	<polygon points="-27.455, 27.856 -35.162, 27.856 -35.162, 19.048 -27.455, 19.048 -27.455, 14.644 -35.162, 14.644 -35.162, 6.936 -27.455, 6.936 -27.455, 1.431 -41.768, 1.431 -41.768, 33.361 -42.869, 33.361 -42.869, 37.765 -36.263, 37.765 -36.263, 64.189 -30.758, 64.189 -30.758, 37.765 -25.253, 37.765 -25.253, 33.361 -27.455, 33.361 "/>
	<polygon points="-2.132, 33.361 3.373, 33.361 3.373, 64.189 8.878, 64.189 8.878, 33.361 12.181, 33.361 12.181, 27.856 4.474, 27.856 4.474, 19.048 12.181, 19.048 12.181, 14.644 4.474, 14.644 4.474, 6.937 12.181, 6.937 12.181, 1.431 -2.132, 1.431 "/>
	<path d="M35.412, 33.361l-6.056-13.873c2.642-1.541, 4.074-4.404, 4.074-8.368c0-3.193-0.771-5.615-2.312-7.157 c-1.541-1.652-3.964-2.532-7.157-2.532l-7.377, 0l0, 31.929h-2.202l0, 30.828h5.505l0-16.956c0-1.982-0.22-3.964-0.551-5.065h0.33 l9.689, 22.02l7.046, 0l0-30.828H35.412z M22.09, 6.937l1.431, 0c1.321, 0, 2.312, 0.22, 2.973, 0.881s0.991, 1.762, 0.991, 3.413 c0, 1.541-0.33, 2.642-0.881, 3.413s-1.541, 1.101-2.973, 1.101H22.09L22.09, 6.937z M31.229, 55.381l-9.579-22.02h0.44l0-12.111h2.092 l4.955, 12.111h1.762l0, 16.735c0, 2.092, 0.33, 4.184, 0.551, 5.285H31.229z"/>
	<polygon points="40.807, 33.361 46.312, 33.361 46.312, 20.479 54.02, 1.431 47.854, 1.431 43.67, 13.873 39.486, 1.431 33.321, 1.431 40.807, 20.699 "/>
	<polygon points="108.63, 1.431 104.446, 13.873 100.262, 1.431 94.096, 1.431 101.363, 20.699 101.363, 33.361 106.868, 33.361 106.868, 20.479 114.685, 1.431 "/>
	<path d="M-8.738, 45.472h-7.707l0-12.111l5.065, 0l7.377-31.929l-5.835, 0l-4.074, 19.268 c-0.44, 2.092-0.881, 4.514-1.101, 7.046c-0.33-3.083-0.771-5.505-1.101-7.157l-4.074-19.158l-5.945, 0l7.377, 31.929h-3.193l0, 30.828 l5.505, 0l0-13.212h7.707l0, 13.212h5.505l0-30.828h-5.505L-8.738, 45.472z"/>
	<path d="M72.627, 5.615c-2.092-2.753-4.955-4.184-8.588-4.184l-8.918, 0l0, 31.379c0-0.11-1.431-0.22-2.312-0.22 c-4.074, 0-7.046, 1.431-9.359, 4.294c-2.312, 2.863-3.303, 6.826-3.303, 11.891c0, 5.285, 0.991, 9.248, 2.973, 12.001 c1.982, 2.753, 4.955, 4.184, 8.588, 4.184c3.083, 0, 5.615-0.55, 8.918-1.762l0-16.625l-9.909, 0l0, 5.505h4.404v7.267 c-1.101, 0.22-2.202, 0.33-3.193, 0.33c-1.762, 0-3.303-0.991-4.184-2.863c-0.991-1.762-1.431-4.514-1.431-8.037 c0-3.413, 0.661-6.166, 1.872-8.147c1.321-1.982, 3.083-2.973, 5.285-2.973c1.541, 0, 3.193, 0.551, 4.955, 1.541l1.872-4.624 c-1.101-0.661-2.202-1.211-3.303-1.211h6.386c3.964, 0, 7.046-1.541, 9.138-4.294s3.193-6.826, 3.193-12.001 C75.599, 12.221, 74.608, 8.368, 72.627, 5.615z M68.112, 25.323c-0.991, 1.762-2.642, 2.532-4.734, 2.532h-1.652l0-20.919l2.092, 0  c3.854, 0, 5.835, 3.413, 5.835, 10.46C69.654, 20.919, 69.103, 23.452, 68.112, 25.323z"/>
	<path d="M91.013, 1.431l-7.927, 0l-7.707, 31.709c0.22, 0.11, 0.44, 0.22, 0.771, 0.22l5.065, 0l1.762-7.707l8.147, 0 l1.762, 7.707h5.835L91.013, 1.431z M84.077, 20.149c1.211-5.505, 1.982-8.808, 2.202-10.239s0.551-2.863, 0.661-4.074 c0.11, 0.551, 0.33, 1.762, 0.661, 3.523c0.33, 1.762, 0.551, 2.973, 0.661, 3.413l1.652, 7.377L84.077, 20.149z"/>
	<path d="M75.379, 33.141c-1.211-0.33-2.312-0.551-3.633-0.551c-2.532, 0-4.514, 0.771-6.056, 2.312 c-1.541, 1.541-2.202, 3.743-2.202, 6.386c0, 1.431, 0.22, 2.642, 0.551, 3.743s0.881, 1.982, 1.652, 2.863 c0.661, 0.881, 1.762, 1.762, 3.083, 2.642c1.541, 1.101, 2.642, 1.982, 3.303, 2.863c0.661, 0.881, 0.991, 1.872, 0.991, 2.863 c0, 1.101-0.33, 1.872-0.881, 2.532c-0.551, 0.661-1.541, 0.881-2.642, 0.881c-1.982, 0-4.404-0.771-6.606-2.312v5.835 c2.202, 1.101, 4.294, 1.652, 7.046, 1.652s4.955-0.771, 6.496-2.312s2.202-3.854, 2.202-6.716c0-1.872-0.44-3.523-1.211-4.955 c-0.881-1.431-2.312-2.863-4.294-4.294c-1.541-0.991-2.532-1.872-3.193-2.642c-0.661-0.771-0.881-1.762-0.881-2.753 c0-1.101, 0.22-1.872, 0.771-2.532s1.211-0.881, 2.202-0.881c0.881, 0, 1.652, 0.11, 2.422, 0.44c0.771, 0.33, 1.431, 0.661, 2.202, 1.101 l1.982-4.734c-0.881-0.551-1.762-0.881-2.642-1.211h-0.771L75.379, 33.141z"/>
	<path d="M75.269, 33.361h0.771c-0.22-0.11-0.44-0.22-0.771-0.22V33.361z"/>
</svg>