<?xml version="1.0" encoding="iso-8859-1"?>
<!DOCTYPE svg PUBLIC "-//W3C//DTD SVG 1.1//EN" "http://www.w3.org/Graphics/SVG/1.1/DTD/svg11.dtd">
<svg version="1.1" id="Layer_1" xmlns="http://www.w3.org/2000/svg" xmlns:xlink="http://www.w3.org/1999/xlink" x="0px" y="0px" viewBox="0 0 148 20" style="enable-background:new 0 0 148 20;" xml:space="preserve">
	<style>
		path { fill: #fff; }
	</style>
	<path d="M9.055, 18.526H1.482v-16.8h7.573v2.7H4.607v3.999h4.125v2.712H4.607v4.654h4.447V18.526z"/>
	<path d="M17.553, 1.727h3.148l-3.953, 16.8h-3.976l-3.93-16.8h3.148l2.195, 10.261c0.199, 0.874, 0.395, 2.126, 0.586, 3.758 c0.161-1.387, 0.364-2.639, 0.609-3.758L17.553, 1.727z"/>
	<path d="M28.58, 18.526h-7.573v-16.8h7.573v2.7h-4.447v3.999h4.125v2.712h-4.125v4.654h4.447V18.526z"/>
	<path d="M32.976, 11.988v6.539h-3.125v-16.8h4.091c1.731, 0, 3.009, 0.41, 3.832, 1.229c0.824, 0.82, 1.235, 2.072, 1.235, 3.757 c0, 2.122-0.716, 3.604-2.149, 4.447l3.229, 7.366h-3.344l-2.654-6.539H32.976z M32.976, 9.299h0.804c0.736, 0, 1.264-0.208, 1.586-0.626 s0.482-1.04, 0.482-1.867c0-0.858-0.17-1.469-0.511-1.833s-0.868-0.546-1.58-0.546h-0.781V9.299z"/>
	<path d="M44.486, 8.357l2.241-6.63h3.275l-3.987, 10.066v6.734h-3.08v-6.607L38.958, 1.727h3.298L44.486, 8.357z"/>
	<path d="M60.994, 9.965c0, 2.773-0.565, 4.894-1.695, 6.36c-1.13, 1.467-2.756, 2.201-4.878, 2.201h-4.114v-16.8H54.8 c1.953, 0, 3.474, 0.722, 4.562, 2.166S60.994, 7.361, 60.994, 9.965z M57.788, 10.058c0-3.754-1.034-5.631-3.103-5.631h-1.252v11.365h1.011 c1.142, 0, 1.984-0.477, 2.528-1.431S57.788, 11.973, 57.788, 10.058z"/>
	<path d="M70.216, 18.526l-0.965-4.24h-4.378l-0.965, 4.24h-3.125l4.16-16.869h4.24l4.171, 16.869H70.216z M68.665, 11.517L67.769, 7.61 c-0.053-0.237-0.174-0.833-0.362-1.787c-0.188-0.954-0.301-1.591-0.339-1.913c-0.1, 0.659-0.226, 1.385-0.379, 2.178 s-0.551, 2.603-1.195, 5.429H68.665z"/>
	<path d="M77.302, 8.357l2.241-6.63h3.275L78.83, 11.792v6.734h-3.08v-6.607L71.774, 1.727h3.298L77.302, 8.357z"/>
	<path d="M92.92, 18.526h-3.114V4.473h-3.218V1.727h9.549v2.746H92.92V18.526z"/>
	<path d="M107.13, 18.526h-3.125v-7.366h-4.125v7.366h-3.125v-16.8h3.125v6.676h4.125V1.727h3.125V18.526z"/>
	<path d="M109.481, 18.526v-16.8h2.942v16.8H109.481z"/>
	<path d="M126.563, 18.526h-3.815l-5.194-12.169h-0.149c0.191, 0.927, 0.287, 1.923, 0.287, 2.988v9.181h-2.896v-16.8h3.838l5.148, 12.042 h0.126c-0.146-0.804-0.218-1.762-0.218-2.873v-9.17h2.873V18.526z"/>
	<path d="M133.431, 9.207h5.137v8.618c-1.456, 0.621-3.004, 0.931-4.643, 0.931c-1.954, 0-3.457-0.743-4.511-2.229 c-1.053-1.486-1.58-3.627-1.58-6.423c0-2.697, 0.604-4.807, 1.811-6.332c1.206-1.524, 2.894-2.287, 5.062-2.287 c1.341, 0, 2.62, 0.345, 3.838, 1.034l-0.988, 2.551c-0.95-0.552-1.839-0.827-2.666-0.827c-1.188, 0-2.128, 0.53-2.821, 1.591 s-1.039, 2.507-1.039, 4.338c0, 1.885, 0.25, 3.329, 0.752, 4.332c0.502, 1.004, 1.231, 1.505, 2.189, 1.505c0.506, 0, 1.019-0.065, 1.54-0.195 v-3.85h-2.08V9.207z"/>
	<path d="M147.606, 13.896c0, 1.57-0.396, 2.773-1.189, 3.608s-1.937, 1.252-3.431, 1.252c-1.463, 0-2.708-0.288-3.734-0.862v-3.091 c1.257, 0.82, 2.409, 1.229, 3.459, 1.229c0.598, 0, 1.048-0.165, 1.351-0.494c0.302-0.329, 0.453-0.777, 0.453-1.344 c0-0.559-0.18-1.071-0.54-1.534c-0.359-0.463-0.953-0.979-1.781-1.545c-0.72-0.498-1.266-0.975-1.637-1.431 c-0.372-0.456-0.659-0.967-0.862-1.534s-0.305-1.226-0.305-1.977c0-1.44, 0.4-2.582, 1.201-3.424 c0.801-0.842, 1.875-1.264, 3.224-1.264c1.286, 0, 2.523, 0.36, 3.711, 1.08l-1.034, 2.505c-0.367-0.214-0.752-0.406-1.154-0.575 c-0.402-0.168-0.833-0.252-1.293-0.252c-0.506, 0-0.895, 0.167-1.166, 0.5c-0.272, 0.333-0.408, 0.787-0.408, 1.362 c0, 0.567, 0.162, 1.061, 0.488, 1.482c0.325, 0.421, 0.895, 0.9, 1.706, 1.437c1.096, 0.735, 1.86, 1.486, 2.293, 2.252 C147.39, 12.042, 147.606, 12.915, 147.606, 13.896z"/>
</svg>